# xmcd
#
# Track frame offsets:
#	150
#	19932
#	35957
#	50830
#	67422
#	89745
#	106112
#	123650
#	167870
#	186080
#	206547
#
# Disc length: 2953 seconds
#
# Revision: 0
# Processed by: cddbd v1.4PL0 Copyright (c) Steve Scherf et al.
# Submitted via: EasyCDDAExtractor 5.0.5.1
#
DISCID=ad0b870b
DTITLE=Slim Dusty - The Entertainer
DYEAR=1900
DGENRE=Country
TTITLE0=Meldy
TTITLE1=About This Hat
TTITLE2=Pushn' Time
TTITLE3=Moving On
TTITLE4=Medley
TTITLE5=Kelly's Offsider
TTITLE6=Walk Right In
TTITLE7=Meldey
TTITLE8=The Front Row
TTITLE9=Tgree Rivers Hotel
TTITLE10=Indian Pacific
EXTD=
EXTT0=
EXTT1=
EXTT2=
EXTT3=
EXTT4=
EXTT5=
EXTT6=
EXTT7=
EXTT8=
EXTT9=
EXTT10=
PLAYORDER=
